<?xml version="1.0" encoding="utf-8"?>
<!-- Generator: Adobe Illustrator 16.0.4, SVG Export Plug-In . SVG Version: 6.00 Build 0)  -->
<!DOCTYPE svg PUBLIC "-//W3C//DTD SVG 1.1//EN" "http://www.w3.org/Graphics/SVG/1.1/DTD/svg11.dtd">
<svg version="1.1" id="Capa_1" xmlns="http://www.w3.org/2000/svg" xmlns:xlink="http://www.w3.org/1999/xlink" x="0px" y="0px"
	 width="45.5px" height="44.5px" viewBox="37.25 22.25 45.5 44.5" enable-background="new 37.25 22.25 45.5 44.5"
	 xml:space="preserve">
<g>
	<path fill="#FFFFFF" d="M80,30.382h-3.135v10.089h1.253v4.633h-2.382V29.796c0-3.11-2.695-5.63-6.018-5.63H49.905
		c-3.323,0-6.019,2.521-6.019,5.63v15.015h-2.069v-4.928h1.316V29.796H40v10.087h1.316v5.398h2.57v11.027
		c0,2.13,1.268,3.986,3.135,4.942v2.915h5.267v-2.227h14.922v2.228h5.267v-2.859c1.936-0.934,3.26-2.822,3.26-4.999V45.572h2.885
		V40.47H80V30.382L80,30.382z M52.916,25.337h14.043v3.052H52.916V25.337z M54.419,56.072h-7.774V52.79h7.774V56.072L54.419,56.072z
		 M73.229,56.072h-7.773V52.79h7.773V56.072L73.229,56.072z M73.229,45.515c0,0-1.505,4.458-13.542,4.458
		c-12.039,0-13.293-4.458-13.293-4.458V30.029h26.835V45.515z"/>
</g>
</svg>
